<svg width="60" height="60" viewBox="0 0 60 60" fill="none" xmlns="http://www.w3.org/2000/svg">
<path d="M36.1547 24.2381V25.0541H26.5067V8.01408H36.1547V8.83008H27.3707V24.2381H36.1547ZM35.6747 14.3261V15.1421H29.5307V10.8701H36.1547V11.6861H30.3947V14.3261H35.6747ZM36.1547 21.3821V22.1981H29.5307V17.1821H35.6747V17.9981H30.3947V21.3821H36.1547Z" fill="#1D6A7A"/>
<path d="M56.5675 28.7027C56.5675 13.4029 44.1646 1 28.8648 1C13.565 1 1.16211 13.4029 1.16211 28.7027C1.16211 44.0025 13.565 56.4054 28.8648 56.4054" stroke="#1D6A7A"/>
<path d="M13.4581 43.749C7.35825 38.2545 6.86752 28.8554 12.3621 22.7555" stroke="#1D6A7A"/>
<ellipse cx="29.5406" cy="56.4054" rx="2.7027" ry="2.7027" fill="#1D6A7A"/>
<ellipse cx="56.5674" cy="30.7297" rx="2.7027" ry="2.7027" fill="#1D6A7A"/>
<ellipse cx="55.2161" cy="41.5405" rx="2.7027" ry="2.7027" fill="#1D6A7A"/>
<ellipse cx="13.3243" cy="22.6216" rx="2.7027" ry="2.7027" fill="#1D6A7A"/>
<ellipse cx="36.2972" cy="41.5405" rx="2.7027" ry="2.7027" fill="#1D6A7A"/>
<ellipse cx="39.0001" cy="51" rx="2.7027" ry="2.7027" fill="#1D6A7A"/>
<ellipse cx="14.6756" cy="44.2432" rx="2.7027" ry="2.7027" fill="#1D6A7A"/>
<line x1="14.6446" y1="43.7442" x2="36.2662" y2="42.3928" stroke="#1D6A7A"/>
<line x1="38.7606" y1="50.5611" x2="53.6254" y2="42.4529" stroke="#1D6A7A"/>
<line x1="36.7877" y1="42.7938" x2="38.139" y2="49.5506" stroke="#1D6A7A"/>
</svg>
